HIERARCHY
ROOT hip
{
	OFFSET 0.000000 0.000000 0.000000 
	CHANNELS 6 Xposition Yposition Zposition Xrotation Zrotation Yrotation
	JOINT abdomen
	{
		OFFSET 0.000000 3.402643 0.000000 
		CHANNELS 3 Xrotation Zrotation Yrotation
		JOINT chest
		{
			OFFSET 0.000000 8.438565 -0.680529 
			CHANNELS 3 Xrotation Zrotation Yrotation
			JOINT neck
			{
				OFFSET 0.000000 10.207942 -0.272212 
				CHANNELS 3 Xrotation Zrotation Yrotation
				JOINT head
				{
					OFFSET 0.000000 3.130431 0.000000 
					CHANNELS 3 Xrotation Zrotation Yrotation
					End Site
					{
						OFFSET 0.000000 3.130435 0.000000 
					}
				}
			}
			JOINT lCollar
			{
				OFFSET 3.470700 6.669187 -0.816635 
				CHANNELS 3 Yrotation Zrotation Xrotation
				JOINT lShldr
				{
					OFFSET 3.198488 0.000000 0.000000 
					CHANNELS 3 Zrotation Yrotation Xrotation
					JOINT lForeArm
					{
						OFFSET 10.139888 0.000000 0.000000 
						CHANNELS 3 Yrotation Zrotation Xrotation
						JOINT lHand
						{
							OFFSET 8.370511 0.000000 0.000000 
							CHANNELS 3 Zrotation Yrotation Xrotation
							End Site
							{
								OFFSET 4.083176 0.000000 0.000000 
							}
						}
					}
				}
			}
			JOINT rCollar
			{
				OFFSET -3.470700 6.669187 -0.816635 
				CHANNELS 3 Yrotation Zrotation Xrotation
				JOINT rShldr
				{
					OFFSET -3.198488 0.000000 0.000000 
					CHANNELS 3 Zrotation Yrotation Xrotation
					JOINT rForeArm
					{
						OFFSET -10.139888 0.000000 0.000000 
						CHANNELS 3 Yrotation Zrotation Xrotation
						JOINT rHand
						{
							OFFSET -8.370511 0.000000 0.000000 
							CHANNELS 3 Zrotation Yrotation Xrotation
							End Site
							{
								OFFSET -4.083176 0.000000 0.000000 
							}
						}
					}
				}
			}
		}
	}
	JOINT lThigh
	{
		OFFSET 5.308129 -1.633274 1.361059 
		CHANNELS 3 Xrotation Zrotation Yrotation
		JOINT lShin
		{
			OFFSET -2.041588 -20.007561 0.000000 
			CHANNELS 3 Xrotation Zrotation Yrotation
			JOINT lFoot
			{
				OFFSET 0.000000 -19.190928 -1.224953 
				CHANNELS 3 Xrotation Yrotation Zrotation
				End Site
				{
					OFFSET 0.000000 -2.449906 4.627600 
				}
			}
		}
	}
	JOINT rThigh
	{
		OFFSET -5.308129 -1.633274 1.361059 
		CHANNELS 3 Xrotation Zrotation Yrotation
		JOINT rShin
		{
			OFFSET 2.041588 -20.007561 0.000000 
			CHANNELS 3 Xrotation Zrotation Yrotation
			JOINT rFoot
			{
				OFFSET 0.000000 -19.190928 -1.224953 
				CHANNELS 3 Xrotation Yrotation Zrotation
				End Site
				{
					OFFSET 0.000000 -2.449906 4.627600 
				}
			}
		}
	}
}
MOTION
Frames: 12
Frame Time: 0.033333
-1.120898 49.441917 -2.175037 0.661005 -0.897271 -2.920328 0.000000 0.000000 0.000000 0.332947 0.107418 0.488299 6.626845 0.156144 2.109394 3.986802 0.947011 1.328428 0.250659 9.252856 0.870163 -13.037876 -0.987913 -9.705246 -0.009125 -3.795425 8.749951 -1.838856 -11.322682 -3.041790 1.594039 -8.598624 0.929230 14.418899 -2.703744 -10.027379 -0.106537 3.975265 10.727962 2.020395 5.985879 -3.201012 -1.992182 11.080000 7.769491 6.428093 -0.731572 12.938313 -1.514656 0.166237 -9.767455 -4.246744 -7.281762 -6.251127 10.512559 3.552227 -6.775396 -5.432358 -0.259737 4.821886 
-1.645870 49.425316 -2.209024 0.714607 -1.044126 -2.236847 0.000000 0.000000 0.000000 0.352222 0.429687 0.087961 6.628462 0.507523 1.933691 4.124469 0.458796 1.640729 -0.033012 9.697910 0.891022 -13.679092 -0.049376 -9.240520 -0.004575 -3.918045 8.251749 -1.666480 -11.010723 -3.088420 1.165910 -8.605308 0.939040 14.065300 -3.055137 -9.658609 -0.075771 4.004897 10.209595 1.963303 5.934227 -3.217782 -1.650193 11.662555 7.939036 5.195921 -0.545209 11.828858 -0.680171 0.095815 -10.218487 -4.461337 -6.881372 -6.535731 11.323344 4.157660 -7.028521 -6.164735 -0.247909 4.037864 
-2.110049 49.410599 -2.257324 1.015227 -0.946825 -1.748292 0.000000 0.000000 0.000000 0.213645 0.585936 -0.117181 6.688289 0.605190 1.738391 4.172789 0.449041 1.611432 -0.167429 9.940086 0.743340 -14.206470 0.517034 -8.957784 0.003030 -3.999703 7.626251 -1.584177 -10.370753 -3.118043 0.790999 -8.525169 0.789927 13.600949 -3.351800 -9.483120 -0.066313 3.937576 10.247896 1.452363 5.944214 -3.260230 -1.240366 11.918407 7.926722 3.388537 -0.386872 11.315582 0.455809 -0.025301 -10.580504 -5.077191 -6.609528 -6.583776 12.209856 4.449334 -7.314511 -6.830855 -0.226288 3.488893 
-2.497230 49.406437 -2.272048 1.074535 -0.732153 -1.552982 0.000000 0.000000 0.000000 0.184302 0.664061 -0.107415 6.722067 0.761376 1.718987 4.514665 0.097612 1.728530 -0.157477 10.057416 0.733721 -14.460799 0.872188 -8.092971 0.011258 -4.382375 7.581147 -1.211851 -10.545189 -3.149799 0.737922 -8.428440 0.770615 13.117468 -3.722389 -9.517797 -0.067179 3.751287 10.470736 1.245289 5.971282 -3.270649 -0.108210 11.895144 8.036720 0.904392 -0.269679 10.981602 1.752016 -0.168772 -10.814992 -5.473777 -6.467507 -6.633794 12.905650 4.626594 -7.515635 -7.325077 -0.209740 2.987513 
-2.829917 49.399532 -2.289521 1.224081 -0.517411 -1.455195 0.000000 0.000000 0.000000 0.125373 0.712889 -0.126943 6.668621 0.868690 1.845935 4.859019 -0.126882 1.923823 -0.330680 9.752651 0.682279 -14.254497 1.462129 -7.273364 -0.001755 -4.618573 7.396940 -1.797394 -10.802667 -3.071362 0.757812 -8.487550 0.701568 12.674474 -3.997103 -9.212444 -0.072991 3.756088 10.999479 0.999796 6.152624 -3.281677 -0.010558 12.046719 8.040896 0.505671 -0.308526 10.001855 1.812624 -0.173259 -11.021734 -5.955994 -6.277875 -6.558621 13.518299 4.634778 -7.786891 -7.714762 -0.186761 2.647621 
-3.107361 49.406933 -2.282238 1.234674 -0.185499 -1.298853 0.000000 0.000000 0.000000 0.107219 0.595703 -0.019530 6.819748 1.034642 1.807051 4.889760 -0.370880 1.943382 -0.648700 9.924525 0.703145 -14.207892 1.814186 -6.292503 -0.012397 -4.973462 7.312602 -2.415945 -10.826910 -2.994729 0.805179 -8.487097 0.691903 12.308680 -4.355136 -8.523834 -0.068263 3.847821 11.107918 0.607332 5.983229 -3.316240 0.038695 12.059205 8.033733 0.456669 -0.372789 8.783041 1.628202 -0.154921 -10.513606 -6.160919 -6.268005 -6.571003 13.967168 4.615316 -7.937949 -8.071056 -0.183522 2.361987 
-3.329132 49.395592 -2.297310 1.444723 0.058591 -0.576172 0.000000 0.000000 0.000000 0.024343 0.605448 -0.468724 6.616464 0.927406 1.523712 5.070168 -0.487960 2.080086 -1.043789 9.647397 0.632435 -13.745463 2.089682 -5.639545 -0.011546 -5.278688 7.325801 -2.324813 -10.890085 -2.998148 0.540448 -8.432186 0.622881 11.729164 -4.313640 -8.464912 -0.065369 3.789572 11.988078 -0.233444 5.914536 -3.393763 -0.322324 12.069507 7.753792 0.835598 -0.367410 6.773391 1.038176 -0.081693 -10.404025 -6.589367 -6.286141 -6.615942 14.571375 4.614714 -8.600560 -8.477996 -0.190454 2.243151 
-3.438671 49.374603 -2.274492 1.504582 0.283202 0.136765 0.000000 0.000000 0.000000 0.000428 0.644464 -0.830026 6.563609 0.976344 1.211261 4.956991 -0.858732 2.216987 -1.521599 9.583588 0.632333 -13.463593 2.208367 -5.500172 0.007041 -5.405843 7.454929 -2.508813 -10.577791 -2.991962 0.283320 -8.268956 0.613214 11.042024 -4.271482 -8.702229 -0.060414 3.667201 11.693244 -0.032779 5.681778 -3.374952 -0.254857 11.811115 7.334712 1.437101 -0.348255 3.982627 -0.341749 0.091545 -11.441468 -6.844735 -6.444169 -6.708780 15.239639 4.626594 -9.208281 -8.937491 -0.199019 2.274121 
-3.461993 49.377033 -2.201710 1.245434 0.429656 0.693413 0.000000 0.000000 0.000000 0.153199 0.751844 -0.976607 6.717303 1.093601 0.947466 4.806332 -1.229564 2.197598 -1.852431 9.702218 0.791097 -13.385537 1.940738 -5.553378 0.000653 -5.493021 7.270228 -2.304132 -10.195104 -3.029058 0.106344 -8.153607 0.749920 10.603431 -4.371246 -8.596028 -0.053128 3.590580 11.829075 -0.473941 5.841618 -3.409056 0.360978 11.238869 6.901492 1.817866 -0.261631 1.924562 -1.632897 0.168709 -11.605879 -6.529733 -6.480036 -6.773747 15.394046 4.459757 -9.780789 -9.116964 -0.202321 2.445978 
-3.381940 49.419197 -2.076343 0.891396 0.654178 1.093902 0.000000 0.000000 0.000000 0.277619 0.849471 -1.035187 6.891654 1.191290 0.801014 4.810315 -1.649198 2.178519 -2.150774 9.791037 0.930578 -13.410286 1.617448 -5.419385 -0.012193 -5.621401 7.173029 -1.970723 -9.844114 -3.073617 0.064845 -8.173781 0.868694 10.215173 -4.457241 -8.522127 -0.051444 3.534996 12.151316 -0.887017 5.680022 -3.449441 0.926408 10.258169 6.360989 1.854825 -0.164129 2.020682 -2.029301 0.229222 -11.039931 -5.758730 -6.733721 -6.975223 14.973267 4.351634 -10.002104 -9.031555 -0.241469 2.674555 
-3.286025 49.455421 -1.918712 0.830075 0.673757 0.830136 0.000000 0.000000 0.000000 0.093273 0.976460 -0.830124 6.925172 1.288893 0.928159 4.850195 -1.688319 2.100424 -1.633061 10.126704 0.733453 -13.453627 0.869541 -5.115241 -0.032982 -5.899997 7.206065 -1.882715 -9.819905 -3.089468 0.302963 -8.034036 0.701561 9.632765 -4.357758 -8.516092 -0.042599 3.594486 11.966114 -0.600001 5.305805 -3.429262 1.052599 9.542352 6.407812 1.485267 -0.347630 5.671031 -1.245184 0.141105 -10.229962 -5.269794 -6.771113 -6.873351 14.383176 4.220846 -9.907578 -8.858810 -0.243393 2.812318 
-3.164734 49.491158 -1.720963 0.885073 0.556606 0.634831 0.000000 0.000000 0.000000 -0.269621 1.152237 -0.781288 6.909595 1.288823 1.103895 5.087795 -1.346768 2.080651 -1.637059 10.301049 0.415612 -13.292075 0.881729 -4.651231 -0.037070 -6.051630 7.453932 -2.265840 -9.831239 -3.042490 0.381725 -7.829781 0.365935 9.036345 -3.955032 -8.487342 -0.043155 3.707502 12.221933 -0.640350 4.833811 -3.430159 0.946259 9.246503 6.669874 1.505467 -0.599450 8.924486 -0.731860 0.093847 -9.645628 -4.677192 -6.736934 -6.906982 13.553954 4.150029 -9.696253 -8.644444 -0.243216 2.982848 
